<svg class="icon" height="512" viewBox="0 0 1024 1024" xmlns="http://www.w3.org/2000/svg">
	<path fill="#E8E8E8" d="M983.6 412.8H40.4c-28.8 0-28.8 44.7 0 44.7h191.5c-.1.1-.2.1-.3.2h30.7c25.2 0 25.1 39.1 0 39.1h-48.6c-.4 0-.8-.1-1.2-.1H89.3c-28.8 0-28.8 44.7 0 44.7h162.5c1.1-.3 2.3-.5 3.6-.5h57.9c16.5 0 16.5 25.6 0 25.6H201.1c-28.8 0-28.8 44.7 0 44.7h740.7c28.8 0 28.8-44.7 0-44.7H713.9c-16.5 0-16.5-25.6 0-25.6h37.7c23.6-4.9 22-44.2-5.1-44.2h-8.3c-.4 0-.7.1-1.2.1h-60.2c-25.2 0-25.1-39.1 0-39.1h24.7c-.1-.1-13.6-.1-13.7-.2h295.8c28.8 0 28.9-44.7 0-44.7z"/>
</svg>